<svg width="82" height="82" viewBox="0 0 82 82" fill="none" xmlns="http://www.w3.org/2000/svg">
<path d="M7.66667 52.2716V7.9176H74.4902V52.2716M7.66667 52.2716H74.4902M7.66667 52.2716H1M74.4902 52.2716H81M1 52.2716V8.77143C1 4.47939 4.47939 1 8.77143 1H73.2286C77.5206 1 81 4.47939 81 8.77143V52.2716M1 52.2716V57.2774C1 61.5694 4.47939 65.0488 8.77143 65.0488H34.1765M81 52.2716V57.2774C81 61.5694 77.5206 65.0488 73.2286 65.0488H34.1765M36.2157 57.9685H45.8627M40.8431 35.6694V40.6338M40.8431 35.6694L24.6863 27.725M40.8431 35.6694L57.3922 27.6715M63.7451 24.6012L40.8431 13.4517L18.3333 24.6012L24.6863 27.725M63.7451 24.6012L57.3922 27.6715M63.7451 24.6012V36.9715M63.7451 24.6012H40.8431M24.6863 27.725V38.5178L40.8431 46.8189L57.3922 38.5178V27.6715M63.7451 36.9715L60.8431 41.7731M63.7451 36.9715L66.8039 41.7731M40.8431 24.6012V21.1017M40.8431 24.6012V28.0505M34.1765 65.0488C34.1765 68.7111 33.549 72.6989 29.7059 74.2452M29.7059 74.2452H23.0441C21.1788 74.2452 19.6667 75.7573 19.6667 77.6226V77.6226C19.6667 79.4879 21.1788 81 23.0441 81H40.8431H58.6422C60.5075 81 62.0196 79.4879 62.0196 77.6226V77.6226C62.0196 75.7573 60.5075 74.2452 58.6422 74.2452H51.9804M29.7059 74.2452H40.8431H51.9804M47.5098 65.0488C47.5098 68.7111 48.1373 72.6989 51.9804 74.2452" stroke="#001431"/>
</svg>
