<svg width="80" height="91" viewBox="0 0 80 91" fill="none" xmlns="http://www.w3.org/2000/svg">
<path d="M7.22467 81.9355L0 0H40H80L72.7753 81.9355L40 91L7.22467 81.9355Z" fill="#1572B6"/>
<path d="M40.0001 16.2637V26.342H15.1543L13.9208 16.2637H40.0001Z" fill="#E9E9E8"/>
<path d="M40.0001 36.8802V47.011H16.8283L16.0353 36.8802L40.0001 26.9619V36.8802Z" fill="#E9E9E8"/>
<path d="M40.0001 63.5393V74.5578L18.7666 68.2492L17.5331 52.4309H28.1058L28.6344 60.6952L40.0001 63.5393Z" fill="#E9E9E8"/>
<path d="M60.8811 68.4266L40 74.5578V63.5393L51.63 60.163L52.1586 47.011H40V36.8802V26.9619L41.4978 26.342H40V16.2637H65.4626L64.5815 26.3942L40 36.8802H63.7004L60.8811 68.4266Z" fill="#FFFFFE"/>
<path d="M73.7445 5.77808H40V16.2637H65.4626L64.5815 26.3942L40 36.8802H63.7004L60.8811 68.4267L40 74.5578V84.9553L67.4009 77.5793L73.7445 5.77808Z" fill="#35A8DB"/>
<path d="M52.1586 47.0111H40V63.5393L51.63 60.1631L52.1586 47.0111Z" fill="#35A8DB"/>
<path d="M41.4978 26.3421L40 26.962V26.3421H41.4978Z" fill="#35A8DB"/>
</svg>
