<svg width="80" height="112" viewBox="0 0 80 112" fill="none" xmlns="http://www.w3.org/2000/svg">
<path d="M63.951 1.05998C63.3231 0.403025 62.0256 -0.317503 61.628 0.148724L48.3806 14.2414L45.6809 24.8798C42.4162 24.7738 36.075 24.823 33.7729 24.8798C23.4555 25.1341 14.9169 26.7235 15.0006 28.2705C15.1473 30.9831 33.2707 31.9155 41.7046 31.7672C53.6112 31.5578 64.8508 30.3685 64.9764 28.3129C65.0203 27.5937 63.6161 27.0861 62.0256 26.6387C59.012 25.791 52.7964 25.1976 50.3478 25.1341L52.5452 16.1699L64.9136 2.94606C65.1857 2.64937 64.8016 1.95004 63.951 1.05998Z" fill="#DA4648"/>
<path d="M18.2863 57.6426L15.3564 30.1566C19.7722 32.7844 37.54 32.9115 41.7046 32.9115C47.8784 32.9115 60.2886 32.3817 64.6834 30.1566L61.5233 60.0796C60.5607 60.9485 57.9237 63.2372 56.982 63.873C56.4588 64.2262 55.8937 64.3816 55.7263 63.979C55.5589 63.5763 56.4517 62.9239 57.4843 61.6055C58.4469 60.3763 61.2513 57.1282 58.8446 55.7989C56.9192 54.7354 54.8473 56.4982 53.2987 58.2147C53.7382 56.4982 53.4661 55.9896 52.629 55.9896C51.6872 55.9896 50.9757 58.5114 50.5362 60.0161C49.9711 60.3763 48.5899 62.0717 46.4343 63.4492C45.5344 64.0242 44.6181 64.2374 45.074 62.7498C45.8274 60.2916 46.9835 57.9999 48.4434 54.0823C50.3072 49.081 51.8128 47.5152 50.2851 46.9406C49.5526 46.6651 48.878 47.1313 48.5062 48.1062C46.6227 53.0439 43.2114 61.3724 42.8975 62.8134C42.2069 63.4492 40.8047 64.318 40.156 64.0002C39.7165 63.7848 40.0932 62.2624 40.5117 61.0121C41.3063 58.6386 43.1277 56.1803 41.5163 55.5234C40.2167 54.9936 39.8174 57.579 39.4026 58.5114C38.5445 60.4399 36.4308 64.3604 34.338 63.7459C33.773 63.5799 34.3184 61.2704 35.0077 59.8465C36.1464 57.4942 37.3935 56.032 35.8867 55.5234C34.9449 55.2055 34.3247 56.2556 33.8985 57.2823C32.6847 60.2068 30.0687 65.2929 32.7056 66.2465C34.9031 67.0412 37.6028 64.8266 38.4189 63.1101C38.0841 64.8055 38.1469 65.9074 39.0259 66.2889C40.0095 66.7158 41.5372 65.7803 42.7301 64.869C42.9603 67.2001 46.0786 66.8611 49.1131 63.6399C48.0667 66.2889 45.4926 70.9709 45.4926 72.4134C45.4926 73.4518 47.1655 73.8966 47.9202 72.3498C48.7992 70.5485 48.841 69.2346 51.4989 63.4492C52.8229 60.5671 55.6635 57.3035 57.1913 57.9816C58.0143 58.347 55.6082 60.9887 55.1613 61.4995C53.6963 63.1737 52.0012 65.635 54.4079 66.3313C55.6426 66.6885 57.7773 66.2465 61.1885 62.771L58.8446 83.4332C57.4215 85.616 46.3702 87.0937 41.7046 87.2054C32.8521 87.4173 22.1789 85.5312 20.7139 83.4332L19.0816 66.0346C21.3209 67.8571 24.8367 64.869 26.783 62.5803C26.6156 63.1525 26.3288 63.9578 26.218 64.3392C25.5901 66.5008 24.5438 69.4253 25.7366 69.7008C26.1307 69.7918 26.8388 69.4041 27.1807 68.3657C27.9759 65.9498 28.3108 64.0214 29.6292 60.1008C30.3444 57.9744 31.4081 55.9896 30.9895 54.3366C30.8465 53.7718 29.7171 53.5144 29.1479 54.379C28.2061 56.6254 28.2494 57.5129 27.662 58.5326C26.49 60.5671 23.1207 64.3392 21.4255 63.9578C20.6721 63.7882 20.2746 62.7286 20.3791 61.2664C20.7349 56.2863 24.2298 50.2254 27.076 48.085C28.0076 47.3845 29.6424 46.8982 30.4663 48.3393C30.6966 48.7419 31.2386 49.6744 31.5965 50.077C31.9732 50.5009 33.0135 50.4585 33.187 49.2505C33.3544 48.085 32.7656 47.3645 31.7429 46.3049C30.8431 45.3724 29.2944 44.7944 27.4109 45.3724C25.339 46.0082 20.8604 49.2505 18.2863 57.6426Z" fill="#DA4648"/>
<path d="M41.7046 88.3921C35.9708 88.4604 28.1434 88.0107 21.8859 85.5524L25.1297 91.1259L26.3645 108.588C27.097 111.682 38.3918 112 40.5117 112C44.7818 111.999 53.4033 110.898 53.6545 108.588L54.659 90.914L57.7145 85.5524C53.6335 87.3325 45.2624 88.3497 41.7046 88.3921Z" fill="#DA4648"/>
</svg>
