<svg width="20" height="20" viewBox="0 0 20 20" fill="none" xmlns="http://www.w3.org/2000/svg">
<path d="M0 2.41758C0 0.915751 1.08581 0 2.41681 0C3.74781 0 4.83363 0.915751 4.83363 2.41758C4.83363 3.91941 3.74781 4.68864 2.41681 4.68864C1.08581 4.68864 0 3.91941 0 2.41758Z" fill="#001431" fill-opacity="0.65"/>
<path d="M4.55341 6.48352H0.245183V20H4.55341V6.48352Z" fill="#001431" fill-opacity="0.65"/>
<path d="M6.90017 20V6.48352L11.2434 6.52015V8.42491C11.6287 7.61905 12.7496 6.30037 15.0963 6.22711C17.8045 6.22711 20 8.42256 20 11.1308V20H15.6918V12.0044C15.6918 10.776 14.696 9.78022 13.4676 9.78022C12.2392 9.78022 11.2434 10.776 11.2434 12.0044V20H6.90017Z" fill="#001431" fill-opacity="0.65"/>
</svg>
