<svg width="20" height="20" viewBox="0 0 20 20" fill="none" xmlns="http://www.w3.org/2000/svg">
<path d="M7.20223 5.24622L4.92689 7.58625C4.50075 8.0245 4.40794 8.69082 4.75079 9.1969C6.13947 11.2467 8.79305 14.1165 10.8901 15.302C11.5204 15.6583 12.2766 15.4538 12.7949 14.9482L14.8237 12.9691C15.1397 12.6608 15.6451 12.6649 15.956 12.9783L19.4263 16.475C19.7419 16.7931 19.7385 17.3098 19.4244 17.6294C18.7282 18.3379 18.0206 19.0528 16.9296 19.6314C15.043 20.632 10.6427 19.7308 5.78126 15.2484C1.30729 11.1232 -1.38294 5.48795 0.737082 2.46774C1.18349 1.83177 1.80743 1.26762 2.49691 0.588388C2.81926 0.270833 3.34043 0.263956 3.66042 0.583883L7.19425 4.11695C7.50524 4.42787 7.50879 4.93094 7.20223 5.24622Z" fill="#001431" fill-opacity="0.65"/>
</svg>
