<svg width="80" height="50" viewBox="0 0 80 50" fill="none" xmlns="http://www.w3.org/2000/svg">
<path d="M12.8182 27.7987C13.0297 24.8081 12.8069 14.7436 18.2455 8.02396C20.056 5.65813 22.298 3.38159 23.3284 2.48883C23.5306 2.31364 23.6829 2.15908 23.7934 2.03054C25.1753 0.794561 34.9121 0 39.9998 0C45.0876 0 54.8244 0.794561 56.2063 2.03054C56.3168 2.15908 56.4691 2.31364 56.6713 2.48883C57.7017 3.38159 59.9437 5.65813 61.7542 8.02396C67.1928 14.7436 66.97 24.8081 67.1814 27.7987C66.8419 31.6376 66.0884 34.166 65.3507 35.049C62.1789 38.8452 62.5766 39.9046 62.1928 41.1406C60.877 45.3782 57.1051 46.9674 54.4735 47.5854C52.7191 48.4682 51.4034 48.3799 50.3507 48.4682C47.456 50.0573 43.5963 50.0573 39.9998 49.969C36.4034 50.0573 32.5437 50.0573 29.649 48.4682C28.5963 48.3799 27.2805 48.4682 25.5262 47.5854C22.8946 46.9674 19.1226 45.3782 17.8069 41.1406C17.4231 39.9046 17.8208 38.8452 14.649 35.049C13.9112 34.166 13.1577 31.6376 12.8182 27.7987Z" fill="#EFCCA3"/>
<path d="M38.8594 21.541C38.1577 21.8783 37.9822 22.8653 38.5085 23.395C39.2103 23.395 39.6489 21.8783 38.8594 21.541Z" fill="#321611"/>
<path d="M41.1401 21.541C41.8419 21.8783 42.0173 22.8653 41.491 23.395C40.7892 23.395 40.3506 21.8783 41.1401 21.541Z" fill="#321611"/>
<path d="M28.1578 26.1325C29.7772 24.7199 32.2806 22.7777 35.0876 22.3362C35.9648 20.2174 38.3332 19.4229 39.9999 19.4229C41.6666 19.4229 44.035 20.2174 44.9122 22.3362C47.7192 22.7777 50.2226 24.7199 51.842 26.1325C55.366 29.2063 57.2015 31.666 57.2521 36.7266C55.7894 40.3463 47.9049 43.7894 47.7192 42.9948C47.3683 41.494 46.8021 39.9049 46.4034 38.5806C46.7543 40.5229 47.0174 41.7588 46.7543 42.73C46.4911 43.7011 43.0701 44.2308 39.9999 44.4074C36.9297 44.2308 33.5087 43.7011 33.2455 42.73C32.9823 41.7588 33.2455 40.5229 33.5964 38.5806C33.1977 39.9049 32.6315 41.494 32.2806 42.9948C32.0948 43.7894 24.2104 40.3463 22.7477 36.7266C22.7983 31.666 24.6338 29.2063 28.1578 26.1325Z" fill="#56332B"/>
<path d="M18.2455 8.02366C12.8069 14.7433 13.0297 24.8078 12.8182 27.7984C13.1577 31.6372 13.9112 34.1657 14.649 35.0486C17.8208 38.8449 17.4231 39.9043 17.8069 41.1403C19.1226 45.3779 22.8946 46.9671 25.5262 47.585C22.8069 46.2166 22.9823 41.3168 22.8069 38.6683C22.7612 37.9796 22.7416 37.3341 22.7476 36.7261C22.7982 31.6655 24.6338 29.2057 28.1577 26.1319C29.7772 24.7194 32.2805 22.7771 35.0876 22.3357C35.9648 20.2168 38.3332 19.4223 39.9998 19.4223C41.6665 19.4223 44.0349 20.2168 44.9121 22.3357C47.7191 22.7771 50.2225 24.7194 51.8419 26.1319C55.3659 29.2057 57.2014 31.6655 57.252 36.7261C57.2581 37.3341 57.2384 37.9796 57.1928 38.6683C57.0174 41.3168 57.1928 46.2166 54.4735 47.585C57.1051 46.9671 60.877 45.3779 62.1928 41.1403C62.5766 39.9043 62.1789 38.8449 65.3507 35.0486C66.0884 34.1657 66.8419 31.6372 67.1814 27.7984C66.97 24.8078 67.1928 14.7433 61.7542 8.02366C59.9437 5.65783 57.7017 3.38128 56.6713 2.48853C59.0349 6.26789 64.3407 12.2712 63.8595 15.5378C61.3156 13.2424 60.6139 11.0353 59.8244 10.1524C59.8244 10.947 60.263 12.183 59.9998 12.7127C57.3683 11.2118 53.5963 11.4767 52.0174 11.4767C50.1753 11.4767 49.8462 12.0276 50.1753 13.6838C50.4384 15.0081 51.1841 18.3629 50.7893 19.1574C50.3946 19.952 49.9121 19.8637 49.0349 19.7754C49.9119 20.3232 50.8931 21.0809 51.8419 21.8784C50.7893 17.0349 53.9472 14.6549 57.1051 14.6549C59.4009 14.6549 62.8069 16.4206 62.7191 20.7466C62.6619 23.5711 59.7367 26.2202 55.9648 25.6905C57.0174 26.7499 57.456 28.2331 58.2455 28.0742C60.4384 27.6327 64.2104 26.1319 64.7367 21.0997C64.9121 24.6311 65.9648 29.0453 65.6139 32.1353C65.2995 34.9034 61.0525 38.1386 58.4209 38.8449C58.4209 37.6972 58.3483 35.4901 57.8946 33.283C57.3683 30.7227 54.8244 27.0442 52.1928 24.9842C49.8244 23.1302 47.718 22.7034 46.4911 21.5411C43.6018 18.8043 41.2279 18.0097 39.9998 18.0097C38.7718 18.0097 36.3979 18.8043 33.5086 21.5411C32.2816 22.7034 30.1753 23.1302 27.8069 24.9842C25.1753 27.0442 22.6314 30.7227 22.1051 33.283C21.6514 35.4901 21.5788 37.6972 21.5788 38.8449C18.9472 38.1386 14.7001 34.9034 14.3858 32.1353C14.0349 29.0453 15.0876 24.6311 15.263 21.0997C15.7893 26.1319 19.5612 27.6327 21.7542 28.0742C22.5437 28.2331 22.9823 26.7499 24.0349 25.6905C20.263 26.2202 17.3378 23.5711 17.2805 20.7466C17.1928 16.4206 20.5987 14.6549 22.8946 14.6549C26.0525 14.6549 29.2104 17.035 28.1577 21.8784C29.1066 21.0809 30.0878 20.3232 30.9648 19.7754C30.0876 19.8637 29.6051 19.952 29.2104 19.1574C28.8156 18.3629 29.5612 15.0081 29.8244 13.6838C30.1535 12.0276 29.8244 11.4767 27.9823 11.4767C26.4034 11.4767 22.6314 11.2118 19.9998 12.7127C19.7367 12.183 20.1753 10.947 20.1753 10.1524C19.3858 11.0353 18.6841 13.2424 16.1402 15.5378C15.6589 12.2712 20.9648 6.26789 23.3284 2.48853C22.298 3.38128 20.056 5.65783 18.2455 8.02366Z" fill="#CCAC8D"/>
<path d="M17.9823 30.4579C17.3023 30.2712 15.7893 28.957 15.263 27.0148C15.7016 27.7984 16.8595 29.3155 18.5963 29.8399C19.4735 30.1047 20.5262 30.1931 22.456 30.1047C21.5788 30.4579 19.9121 30.9876 17.9823 30.4579Z" fill="#CCAC8D"/>
<path d="M39.9998 15.7143C37.6314 15.5378 33.2455 17.48 31.9297 18.5394C33.1577 16.7738 37.1928 14.3901 39.9998 14.3901C42.8069 14.3901 46.8419 16.7738 48.07 18.5394C46.7542 17.48 42.3683 15.5378 39.9998 15.7143Z" fill="#CCAC8D"/>
<path d="M33.6841 14.3901C35.263 12.9775 37.9823 12.0064 39.9998 12.183C42.0174 12.0064 44.7367 12.9775 46.3156 14.3901L46.3137 14.384C45.5246 11.9132 44.5676 8.91672 52.2805 9.26957C48.5963 8.38672 44.4735 9.00471 44.9998 12.7127C43.4209 11.6532 41.4911 11.4767 39.9998 11.4767C38.5086 11.4767 36.5788 11.6532 34.9998 12.7127C35.5262 9.00471 31.4034 8.38672 27.7191 9.26957C35.4321 8.91672 34.4751 11.9132 33.686 14.384L33.6841 14.3901Z" fill="#CCAC8D"/>
<path d="M39.9998 8.38672C39.2104 8.38672 38.2455 8.65158 36.4911 10.0641C37.3683 8.65158 38.8595 7.76873 39.9998 7.50388C41.1402 7.76873 42.6314 8.65158 43.5086 10.0641C41.7542 8.65158 40.7893 8.38672 39.9998 8.38672Z" fill="#CCAC8D"/>
<path d="M62.0174 30.4579C62.6974 30.2712 64.2104 28.957 64.7367 27.0148C64.2981 27.7984 63.1402 29.3155 61.4034 29.8399C60.5262 30.1047 59.4735 30.1931 57.5437 30.1047C58.4209 30.4579 60.0876 30.9876 62.0174 30.4579Z" fill="#CCAC8D"/>
<path d="M0.232702 16.3268C2.04327 13.9609 5.62026 10.0328 7.9166 8.02407C9.55053 6.37245 11.4494 4.98867 12.421 4.36374C15.6406 2.29267 21.3265 1.49 23.5759 1.59907C23.842 1.61197 23.9671 1.82862 23.7935 2.03065C23.6831 2.15919 23.5308 2.31375 23.3286 2.48894C22.2981 3.38169 20.0562 5.65824 18.2456 8.02407C12.807 14.7437 13.0299 24.8082 12.8184 27.7988C12.7742 28.4237 12.6417 30.5663 11.9352 31.5037C11.8101 31.6696 11.1403 31.959 10.7429 31.6377C10.2458 31.2357 9.82506 30.7433 9.45525 30.1935C8.18221 28.301 7.51303 25.7284 6.41511 23.826C6.30232 23.6305 6.16275 23.4278 6.00101 23.2191C4.83284 21.7113 2.50809 19.8876 0.762585 18.2016C0.283667 17.739 -0.348056 17.0856 0.232702 16.3268Z" fill="#56332B"/>
<path d="M79.7673 16.3268C77.9567 13.9609 74.3797 10.0328 72.0834 8.02407C70.4495 6.37245 68.5506 4.98867 67.579 4.36374C64.3584 2.29204 58.6701 1.48951 56.422 1.59917C56.1573 1.61208 56.0331 1.82885 56.2065 2.03065C56.3169 2.15919 56.4692 2.31375 56.6714 2.48894C57.7019 3.38169 59.9438 5.65824 61.7544 8.02407C67.193 14.7437 66.9701 24.8082 67.1816 27.7988L67.1853 27.8515C67.2332 28.5363 67.377 30.5911 68.0648 31.5037C68.1899 31.6696 68.8597 31.959 69.2571 31.6377C69.7542 31.2357 70.1749 30.7433 70.5448 30.1935C71.8178 28.301 72.487 25.7284 73.5849 23.826C73.6977 23.6305 73.8372 23.4278 73.999 23.2191C75.1672 21.7113 77.4919 19.8876 79.2374 18.2016C79.7163 17.739 80.3481 17.0856 79.7673 16.3268Z" fill="#56332B"/>
<path d="M17.2806 20.7467C17.3379 23.5712 20.263 26.2203 24.035 25.6906C24.6673 25.0542 26.3541 23.3944 28.1578 21.8785C29.2104 17.0351 26.0525 14.655 22.8946 14.655C20.5988 14.655 17.1929 16.4207 17.2806 20.7467Z" fill="black"/>
<path d="M62.7192 20.7467C62.6619 23.5712 59.7367 26.2203 55.9648 25.6906C55.3325 25.0542 53.6456 23.3944 51.842 21.8785C50.7894 17.0351 53.9473 14.655 57.1052 14.655C59.401 14.655 62.8069 16.4207 62.7192 20.7467Z" fill="black"/>
<path d="M24.2982 16.1558C23.6842 16.1558 22.7192 16.7738 22.7192 17.6566C22.7192 18.5394 23.2456 19.334 24.2982 19.334C25.5263 19.334 25.8771 18.3629 25.8771 17.6566C25.8771 16.7738 25.0877 16.1558 24.2982 16.1558Z" fill="white"/>
<path d="M55.7017 16.1558C56.3157 16.1558 57.2806 16.7738 57.2806 17.6566C57.2806 18.5394 56.7543 19.334 55.7017 19.334C54.4736 19.334 54.1227 18.3629 54.1227 17.6566C54.1227 16.7738 54.9122 16.1558 55.7017 16.1558Z" fill="white"/>
<path d="M38.7717 31.9915C39.2125 31.8539 39.6303 31.7821 39.9998 31.7821C40.3693 31.7821 40.7871 31.8539 41.2279 31.9915C40.1752 30.3695 39.9998 27.2795 39.9998 24.5427C39.9998 27.2795 39.8244 30.3695 38.7717 31.9915Z" fill="#1C100E"/>
<path d="M39.9997 21.0116C39.7365 21.0116 38.8594 20.835 38.5085 20.217H39.9997H41.4909C41.1401 20.835 40.2629 21.0116 39.9997 21.0116Z" fill="#814B42"/>
<path d="M39.9997 31.9918C38.0307 32.5679 36.3142 33.9166 35.1049 35.5785C36.6664 34.4308 39.0348 33.4597 39.9997 33.4597C40.9646 33.4597 43.333 34.4308 44.8946 35.5785C43.6852 33.9166 41.9687 32.5679 39.9997 31.9918Z" fill="#814B42"/>
<path d="M37.5437 23.7481C38.2454 24.1895 39.9998 24.5427 39.9998 23.5715C39.9998 24.5427 41.7542 24.1895 42.456 23.7481C41.8419 24.5427 40.6139 24.5427 39.9998 24.5427C39.3858 24.5427 38.1577 24.5427 37.5437 23.7481Z" fill="black"/>
<path d="M38.7718 31.9915C39.2125 31.8538 39.6304 31.782 39.9998 31.782C40.3693 31.782 40.7871 31.8538 41.2279 31.9915C43.5081 32.7035 46.4033 35.1767 46.4033 38.5799C46.0887 37.535 45.571 36.5076 44.8947 35.5782C43.6853 33.9163 41.9688 32.5676 39.9998 31.9915C38.0308 32.5676 36.3143 33.9163 35.105 35.5782C34.4287 36.5076 33.9109 37.535 33.5963 38.5799C33.5963 35.1767 36.4915 32.7035 38.7718 31.9915Z" fill="black"/>
<path d="M29.649 48.4679C28.5964 48.3796 27.2806 48.4679 25.5262 47.5851C22.8069 46.2167 22.9823 41.3169 22.8069 38.6683C22.7613 37.9797 22.7416 37.3341 22.7477 36.7261C24.2104 40.3457 32.0948 43.7888 32.2806 42.9943C32.6315 41.4934 33.1976 39.9043 33.5964 38.58C33.2455 40.5223 32.9823 41.7583 33.2455 42.7294C33.5086 43.7006 36.9297 44.2303 39.9999 44.4068C43.0701 44.2303 46.4911 43.7006 46.7543 42.7294C47.0174 41.7583 46.7543 40.5223 46.4034 38.58C46.8021 39.9043 47.3683 41.4934 47.7192 42.9943C47.9049 43.7888 55.7893 40.3457 57.2521 36.7261C57.2581 37.3341 57.2385 37.9797 57.1928 38.6683C57.0174 41.3169 57.1928 46.2167 54.4735 47.5851C52.7192 48.4679 51.4034 48.3796 50.3507 48.4679C47.456 50.057 43.5964 50.057 39.9999 49.9688C36.4034 50.057 32.5437 50.057 29.649 48.4679Z" fill="#442823"/>
<path d="M29.649 27.6335C30.0568 27.2744 30.6092 27.6662 30.3507 28.2515C29.9998 29.0461 28.9472 28.2515 29.649 27.6335Z" fill="#442823"/>
<path d="M30.7016 30.7235C31.1094 30.3644 31.6618 30.7561 31.4034 31.3415C31.0525 32.136 29.9998 31.3415 30.7016 30.7235Z" fill="#442823"/>
<path d="M50.3507 27.6335C49.9429 27.2744 49.3905 27.6662 49.649 28.2515C49.9999 29.0461 51.0525 28.2515 50.3507 27.6335Z" fill="#442823"/>
<path d="M49.2981 30.7235C48.8903 30.3644 48.3379 30.7561 48.5963 31.3415C48.9472 32.136 49.9999 31.3415 49.2981 30.7235Z" fill="#442823"/>
<path d="M33.4209 27.6335C33.8287 27.2744 34.3811 27.6662 34.1227 28.2515C33.7718 29.0461 32.7191 28.2515 33.4209 27.6335Z" fill="#442823"/>
<path d="M46.5788 27.6335C46.171 27.2744 45.6185 27.6662 45.877 28.2515C46.2279 29.0461 47.2806 28.2515 46.5788 27.6335Z" fill="#442823"/>
<path d="M6.41496 23.8263C6.30217 23.6309 6.1626 23.4282 6.00085 23.2194C6.49108 20.5709 12.9823 9.71191 17.7191 5.82739C14.1227 10.2416 9.21037 20.3943 9.45509 30.1939C8.18205 28.3013 7.51288 25.7288 6.41496 23.8263Z" fill="#442823"/>
<path d="M73.5847 23.8263C73.6975 23.6309 73.8371 23.4282 73.9988 23.2194C73.5086 20.5709 67.0174 9.71191 62.2805 5.82739C65.877 10.2416 70.7893 20.3943 70.5446 30.1939C71.8176 28.3013 72.4868 25.7288 73.5847 23.8263Z" fill="#442823"/>
<path d="M41.1297 21.1882C42.27 21.6297 41.9192 22.6891 41.5682 22.9539C40.7788 22.6008 40.7788 21.8062 41.1297 21.1882Z" fill="#321611"/>
<path d="M38.849 21.1882C37.7086 21.6297 38.0595 22.6891 38.4104 22.9539C39.1998 22.6008 39.1998 21.8062 38.849 21.1882Z" fill="#321611"/>
</svg>
