<svg width="80" height="86" viewBox="0 0 80 86" fill="none" xmlns="http://www.w3.org/2000/svg">
<ellipse cx="40.0001" cy="42.9999" rx="7.25738" ry="7.28676" fill="#61DAFB"/>
<path d="M78.3122 43.0001C78.3122 44.6731 77.4943 46.4256 75.6805 48.1878C73.8615 49.9551 71.1415 51.6243 67.6428 53.0621C60.6534 55.9343 50.8811 57.7499 40 57.7499C29.1189 57.7499 19.3466 55.9343 12.3572 53.0621C8.85854 51.6243 6.13847 49.9551 4.3195 48.1878C2.50574 46.4256 1.68776 44.6731 1.68776 43.0001C1.68776 41.3271 2.50574 39.5745 4.3195 37.8123C6.13847 36.0451 8.85854 34.3758 12.3572 32.938C19.3466 30.0658 29.1189 28.2503 40 28.2503C50.8811 28.2503 60.6534 30.0658 67.6428 32.938C71.1415 34.3758 73.8615 36.0451 75.6805 37.8123C77.4943 39.5745 78.3122 41.3271 78.3122 43.0001Z" stroke="#61DAFB" stroke-width="3.37553"/>
<path d="M59.1587 76.3181C57.7205 77.1518 55.8032 77.3181 53.3755 76.6218C50.9414 75.9237 48.1408 74.3928 45.1504 72.0687C39.1769 67.4262 32.7236 59.8352 27.2822 50.3723C21.8409 40.9095 18.52 31.5026 17.5024 23.9872C16.993 20.225 17.0729 17.0243 17.6878 14.5587C18.3011 12.0996 19.4032 10.5156 20.8413 9.6819C22.2795 8.84821 24.1969 8.68194 26.6245 9.37819C29.0587 10.0763 31.8593 11.6072 34.8496 13.9312C40.8231 18.5738 47.2765 26.1648 52.7178 35.6277C58.1592 45.0905 61.48 54.4974 62.4976 62.0128C63.007 65.775 62.9271 68.9757 62.3122 71.4413C61.6989 73.9003 60.5969 75.4844 59.1587 76.3181Z" stroke="#61DAFB" stroke-width="3.37553"/>
<path d="M20.8413 76.318C19.4032 75.4843 18.3011 73.9003 17.6878 71.4412C17.0729 68.9756 16.993 65.7749 17.5024 62.0127C18.52 54.4973 21.8409 45.0904 27.2822 35.6276C32.7236 26.1647 39.1769 18.5737 45.1504 13.9312C48.1408 11.6072 50.9414 10.0762 53.3755 9.37812C55.8032 8.68187 57.7205 8.84814 59.1587 9.68183C60.5969 10.5155 61.699 12.0996 62.3122 14.5586C62.9272 17.0243 63.007 20.2249 62.4976 23.9871C61.48 31.5026 58.1592 40.9094 52.7178 50.3723C47.2765 59.8351 40.8231 67.4262 34.8496 72.0687C31.8593 74.3927 29.0587 75.9236 26.6245 76.6217C24.1969 77.318 22.2795 77.1517 20.8413 76.318Z" stroke="#61DAFB" stroke-width="3.37553"/>
</svg>
