<svg width="80" height="80" viewBox="0 0 80 80" fill="none" xmlns="http://www.w3.org/2000/svg">
<circle cx="40" cy="40" r="40" fill="#CC6698"/>
<path d="M40.7812 37.4999C37.0313 37.299 32.9805 35.1562 33.2032 32.1875C33.2735 31.25 34.3956 32.5943 35 33.125C38.4375 36.1433 50.0782 35.1563 57.1094 27.9687C65.0577 19.8437 59.5313 15.2852 55.0782 14.7656C46.5625 13.7721 37.8125 17.2748 29.1406 23.1249C19.5285 29.6093 19.7608 35.7812 22.0313 39.2968C24.4532 43.0468 28.2032 44.4531 33.5156 49.6874C42.7344 46.9531 52.3438 51.1718 50.8594 58.9062C50.2486 62.0892 46.1719 63.75 46.4844 62.1874C49.0625 61.1718 50.625 57.5781 47.4219 54.3749C44.7656 51.7187 39.7657 50.8593 35 52.1093C38.4375 61.4843 31.25 68.2031 27.5781 69.3749C21.4844 71.3197 17.8034 70.3125 17.1875 64.9999C16.5625 59.6093 22.9688 54.6093 30.3125 51.1718C25.7032 47.4218 14.5312 41.4843 14.5312 34.6874C14.5313 29.6093 19.5312 21.7187 30.1562 16.1718C53.2812 3.28122 65.3906 12.3437 65.3906 18.5156C65.3906 33.3593 50.0781 37.998 40.7812 37.4999Z" fill="white"/>
<path d="M21.9531 64.1406C21.9532 60.8594 25.7813 56.25 32.1094 53.3594C33.2031 57.3438 31.875 61.4844 28.3594 64.375C26.0156 66.3021 21.9531 67.1875 21.9531 64.1406Z" fill="#CC6698"/>
</svg>
