<svg width="29" height="37" viewBox="0 0 29 37" fill="none" xmlns="http://www.w3.org/2000/svg">
<circle cx="14.5" cy="8.5" r="8" />
<path d="M10.3964 21.5026L10.3964 21.5027H10.4064C10.9477 21.5027 11.5797 21.5141 12.2489 21.5261L12.3507 21.528C13.0553 21.5406 13.796 21.5534 14.5 21.5534C15.204 21.5534 15.9447 21.5406 16.6493 21.528L16.7511 21.5261C17.4203 21.5141 18.0523 21.5027 18.5936 21.5027V21.5028L18.6036 21.5026C22.2096 21.43 24.349 22.8732 25.6238 24.4552C26.9173 26.0604 27.3434 27.8407 27.435 28.4213C27.8596 31.1129 26.1425 33.1123 23.441 34.485C20.7483 35.8533 17.2346 36.5 14.5 36.5C11.7654 36.5 8.25168 35.8533 5.55897 34.485C2.85752 33.1123 1.14039 31.1129 1.56504 28.4213C1.65664 27.8407 2.08273 26.0604 3.37621 24.4552C4.65101 22.8732 6.79039 21.43 10.3964 21.5026Z" />
</svg>
