<svg width="39" height="39" viewBox="0 0 39 39" fill="none" xmlns="http://www.w3.org/2000/svg">
<path d="M8.82738 7.76955H1V38L8.63543 32.6442C8.87802 32.474 9.16715 32.3827 9.46347 32.3827H32.1726L32.1726 25.5134M8.82738 7.76955H32.1726L32.1726 25.5134M8.82738 7.76955V1H38V25.5134H32.1726M12.0102 20.0401C12.0102 21.6708 10.6977 22.9928 9.07865 22.9928C7.45959 22.9928 6.14709 21.6708 6.14709 20.0401C6.14709 18.4094 7.45959 17.0874 9.07865 17.0874C10.6977 17.0874 12.0102 18.4094 12.0102 20.0401ZM19.5179 20.0401C19.5179 21.6708 18.2054 22.9928 16.5863 22.9928C14.9673 22.9928 13.6547 21.6708 13.6547 20.0401C13.6547 18.4094 14.9673 17.0874 16.5863 17.0874C18.2054 17.0874 19.5179 18.4094 19.5179 20.0401ZM27.0255 20.0401C27.0255 21.6708 25.713 22.9928 24.094 22.9928C22.4749 22.9928 21.1624 21.6708 21.1624 20.0401C21.1624 18.4094 22.4749 17.0874 24.094 17.0874C25.713 17.0874 27.0255 18.4094 27.0255 20.0401Z" />
</svg>
