<svg width="39" height="38" viewBox="0 0 39 38" fill="none" xmlns="http://www.w3.org/2000/svg">
<path d="M29.8687 37H37.8013V12.9523H29.8687V37ZM29.8687 37H28.2983M28.2983 37V23.1153H20.3487V37M28.2983 37H20.3487M20.3487 37H18.7231M18.7231 37V25.5487H10.8487V37M18.7231 37H10.8487M10.8487 37H9.19873M9.19873 37H1.19873V27.2664H9.19873V37ZM1.19873 25.5487C12.1108 24.4219 26.6987 19.6083 35.6694 1M35.6694 1L37.1987 7.47714M35.6694 1L29.2739 3.4334M8.31689 14.9205V13.0034C8.31689 12.1253 9.02869 11.4135 9.90674 11.4135H12.1108H14.3149C15.193 11.4135 15.9048 12.1185 15.9048 12.9881V14.9205M14.7124 7.87078V7.87078C14.7124 9.29376 13.5588 10.4473 12.1359 10.4473H12.0497C10.6267 10.4473 9.47314 9.29376 9.47314 7.87078V7.87078C9.47314 6.44779 10.6267 5.29423 12.0497 5.29423H12.1359C13.5588 5.29423 14.7124 6.44779 14.7124 7.87078ZM21.0356 10.7336V10.7336C21.0356 5.83221 17.0122 1.85885 12.1108 1.85885V1.85885C7.20945 1.85885 3.18604 5.83221 3.18604 10.7336V10.7336C3.18604 15.635 7.20945 19.6083 12.1108 19.6083V19.6083C17.0122 19.6083 21.0356 15.635 21.0356 10.7336Z" />
</svg>
