<svg width="20" height="20" viewBox="0 0 20 20" fill="none" xmlns="http://www.w3.org/2000/svg">
<path d="M10 0C4.47715 0 0 4.53047 0 10.1191C0 14.6174 2.90059 18.4824 6.91239 19.8194C7.21616 19.9206 7.51953 19.6869 7.51953 19.3667V17.5721C6.15234 17.9558 4.78027 17.4913 4.31641 16.5824C3.89232 15.7514 3.80859 15.4483 3.47656 15.0877C3.08594 14.6636 2.85807 14.6636 2.69531 14.4616C2.5 14.2192 2.75391 14.098 3.04688 14.098C4.10156 14.2394 4.4104 14.8454 4.74609 15.3503C5.39062 16.3198 6.5625 16.5016 7.53906 15.9966C7.61719 15.2897 7.89062 14.8656 8.18359 14.6232C4.49219 14.3808 3.80748 11.8763 3.61328 10.1191C3.53516 9.41216 3.67188 7.83673 4.64844 6.88744C4.31641 6.3219 4.35547 4.88786 4.74609 4.18094C5.42969 4.03955 6.93359 4.80707 7.48047 5.25142C8.10547 5.02924 9.10156 4.86766 9.98047 4.86766C10.8594 4.86766 11.8555 5.02924 12.4805 5.25142C13.0273 4.80707 14.5312 4.03955 15.2148 4.18094C15.6055 4.88786 15.6445 6.3219 15.3125 6.88744C16.2891 7.83673 16.4258 9.41216 16.3477 10.1191C16.1535 11.8763 15.4688 14.3808 11.7773 14.6232C12.7285 15.3257 12.4537 17.5557 12.4558 19.2703C12.4563 19.6509 12.8198 19.9121 13.1797 19.7882C17.1437 18.4231 20 14.5829 20 10.1191C20 4.53047 15.5228 0 10 0Z" fill="#001431" fill-opacity="0.65"/>
</svg>
