<svg width="80" height="91" viewBox="0 0 80 91" fill="none" xmlns="http://www.w3.org/2000/svg">
<path d="M7.22467 81.9355L0 0H40H80L72.7753 81.9355L40 91L7.22467 81.9355Z" fill="#E55638"/>
<path d="M40 37.0576H26.7842L25.815 26.749H40V16.7959H14.8899L17.5331 47.1885H40V37.0576Z" fill="#EAEAEA"/>
<path d="M40 63.1846V73.6709L19.4714 67.8945L18.0617 52.0762H28.1058L28.8106 60.1631L40 63.1846Z" fill="#EAEAEA"/>
<path d="M60.5285 67.8945L39.9999 73.6709V63.1846L51.1012 60.1631L52.3347 47.1885H39.9999V37.0576H63.3479L60.5285 67.8945Z" fill="#FEFEFE"/>
<path d="M64.229 26.749H39.9999V16.7959H65.11L64.229 26.749Z" fill="#FEFEFE"/>
<path d="M72.6871 6.66504H39.9999V16.7959H65.11L64.229 26.749H39.9999V37.0576H63.3479L60.5285 67.8945L39.9999 73.6709V84.0683L66.5197 76.6924L72.6871 6.66504Z" fill="#F26B3A"/>
<path d="M52.3347 47.1885H39.9999V63.1846L51.1012 60.1631L52.3347 47.1885Z" fill="#F26B3A"/>
</svg>
