<svg width="80" height="80" viewBox="0 0 80 80" fill="none" xmlns="http://www.w3.org/2000/svg">
<path d="M0 80V0H80V80H0Z" fill="#FFDF00"/>
<path d="M43.5938 36.7188H36.0938V63.2031C36.0938 65.5469 34.6875 67.1094 32.4219 67.1094C30.7813 67.1094 29.2188 66.9531 27.1875 63.2031L21.0156 66.9531C23.4375 71.5625 27.5 73.8281 32.4219 73.8281C38.9063 73.8281 43.5938 69.7656 43.5938 63.125V36.7188Z" fill="black"/>
<path d="M53.75 62.4219L47.5781 66.0938C51.25 72.8906 57.6538 73.6642 61.1719 73.75C67.5781 73.9062 72.9941 70.7393 73.6719 64.9219C74.6094 56.875 69.5313 53.5938 61.7969 50.625C58.5156 49.3655 55.8234 47.2342 58.0469 44.1406C59.8438 41.6406 64.6094 42.8125 65.625 46.0937L71.6406 42.3437C68.8281 37.5 65.1563 36.3281 60.8594 36.3281C53.2031 36.3281 49.8438 41.4844 49.8438 46.0937C49.8438 52.0312 52.9792 55.0532 58.9844 57.5781C65.8594 60.4688 67.145 61.7522 65.9375 64.9219C64.7768 67.9688 56.4844 68.4375 53.75 62.4219Z" fill="black"/>
</svg>
