<svg width="80" height="80" viewBox="0 0 80 80" fill="none" xmlns="http://www.w3.org/2000/svg">
<path d="M46.011 58.4314V80H39.9996H33.9883V58.4314L39.9996 50.1961L46.011 58.4314Z" fill="white"/>
<path d="M46.011 21.5686V0H39.9996H33.9883V21.5686L39.9996 29.8039L46.011 21.5686Z" fill="white"/>
<path d="M24.2728 51.3814L3.70242 58.0235L1.85121 52.3182L1.1892e-05 46.6129L20.5704 39.9708L30.2758 43.1401L24.2728 51.3814Z" fill="#D63AFF"/>
<path d="M59.4296 40.0295L80 33.3874L78.1488 27.6821L76.2976 21.9768L55.7272 28.6189L49.7242 36.8603L59.4296 40.0295Z" fill="#D63AFF"/>
<path d="M20.5705 40.0059L0.00828521 33.3386L1.86651 27.6356L3.72473 21.9325L24.287 28.5998L30.2798 36.8485L20.5705 40.0059Z" fill="#00B9F1"/>
<path d="M55.7133 51.4009L76.2755 58.0682L78.1337 52.3651L79.9919 46.6621L59.4297 39.9948L49.7204 43.1522L55.7133 51.4009Z" fill="#00B9F1"/>
<path d="M24.2847 28.6029L11.5885 11.1445L16.4543 7.62318L21.3201 4.10185L34.0162 21.5603L33.9981 31.7475L24.2847 28.6029Z" fill="#00F2E6"/>
<path d="M45.9835 58.4409L58.6797 75.8994L63.5455 72.378L68.4113 68.8567L55.7151 51.3983L46.0017 48.2537L45.9835 58.4409Z" fill="#00F2E6"/>
<path d="M55.7146 28.6029L68.4108 11.1445L63.545 7.62318L58.6792 4.10185L45.983 21.5603L46.0012 31.7475L55.7146 28.6029Z" fill="#FB015B"/>
<path d="M34.0157 58.4409L21.3196 75.8994L16.4538 72.378L11.588 68.8567L24.2842 51.3983L33.9976 48.2537L34.0157 58.4409Z" fill="#FB015B"/>
</svg>
