<svg width="39" height="39" viewBox="0 0 39 39" fill="none" xmlns="http://www.w3.org/2000/svg">
<path d="M7.5826 28.3699V11.8973H33.5875M7.5826 28.3699V38H38V11.8973H33.5875M7.5826 28.3699H1V2.41194H17.1672L19.4819 5.27202H22.1222M33.5875 11.8973V5.27202H22.1222M20.4946 9.65264V14.3591C20.4946 16.5585 22.2776 18.3415 24.477 18.3415H24.5777C26.7771 18.3415 28.5601 16.5585 28.5601 14.3591V3.96869C28.5601 2.32913 27.231 1 25.5914 1H25.0909C23.4513 1 22.1222 2.32913 22.1222 3.96869V5.27202M11.9228 28.3699V33.6556H33.6598V28.3699C31.8876 27.4648 28.9941 23.0841 23.4966 26.7769L19.5181 23.1928L11.9228 28.3699ZM15.1779 16.1874C13.3695 16.1874 11.9228 17.6898 11.9228 19.4457C11.9228 21.2016 13.3695 22.704 15.1779 22.704C16.9863 22.704 18.433 21.2016 18.433 19.4457C18.433 17.6898 16.9863 16.1874 15.1779 16.1874Z" />
</svg>
