<svg width="37" height="37" viewBox="0 0 37 37" fill="none" xmlns="http://www.w3.org/2000/svg">
<path d="M2.72709 33.5277H3.20145V33.0533V12.7508C3.20145 11.9648 3.83858 11.3277 4.62453 11.3277H9.41863H9.89299V10.8533V10.6812C9.89299 10.2069 10.1293 9.76375 10.5232 9.49949L11.3815 8.92368C11.591 8.78312 11.7594 8.58939 11.8694 8.36233L12.087 7.91304L11.6601 7.70623L12.087 7.91304C12.2309 7.61607 12.2671 7.27833 12.1894 6.95762L11.9146 5.82305C11.8763 5.66491 11.9217 5.49817 12.0349 5.38131L12.6271 4.77007L13.199 4.17978C13.3177 4.05727 13.4931 4.00792 13.6582 4.05054L14.6852 4.31554C15.0238 4.40291 15.3827 4.36256 15.6934 4.20221L16.0468 4.01984C16.3203 3.87868 16.5407 3.65265 16.6749 3.37565L17.2338 2.22191L16.8069 2.01511L17.2338 2.22191C17.3131 2.05828 17.4789 1.95436 17.6607 1.95436H18.5H19.3431C19.5175 1.95436 19.6859 2.05619 19.7712 2.23222L20.3204 3.36597C20.4567 3.64734 20.6793 3.87846 20.9573 4.02195L21.1748 3.60042L20.9573 4.02195L21.3119 4.20497C21.6191 4.36349 21.9726 4.40385 22.3074 4.31746L23.3511 4.04814C23.5088 4.00745 23.6788 4.0537 23.7997 4.17843L24.1265 3.86182L23.7997 4.17843L24.3729 4.77008L24.9461 5.36172C25.0684 5.48797 25.121 5.6762 25.0772 5.85696L24.8163 6.93424C24.7748 7.10538 24.7644 7.28126 24.7839 7.45349C24.8027 7.61877 24.8491 7.78121 24.9228 7.93326L25.1264 8.35361L25.5202 8.16287L25.1264 8.35361C25.2385 8.58508 25.4094 8.7834 25.6231 8.92674L26.4472 9.47962C26.8334 9.73877 27.107 10.3108 27.107 10.8533V11.3277H27.5814H32.3755C33.1614 11.3277 33.7986 11.9648 33.7986 12.7508V33.0533V33.5277H34.2729H36.1609C36.1687 33.5328 36.1816 33.5426 36.1996 33.5603C36.2536 33.6137 36.3216 33.7107 36.3828 33.8551C36.5051 34.1436 36.5672 34.5433 36.4948 34.9419C36.424 35.3311 36.2275 35.7121 35.8355 36.0019C35.4389 36.2952 34.8002 36.5256 33.7949 36.5256H18.5H3.20505C2.19979 36.5256 1.56114 36.2952 1.16447 36.0019C0.772511 35.7121 0.575952 35.3311 0.505248 34.9419C0.432847 34.5433 0.494874 34.1436 0.617167 33.8551C0.678372 33.7107 0.746381 33.6137 0.800414 33.5603C0.818363 33.5426 0.831312 33.5328 0.839114 33.5277H2.72709ZM36.1521 33.5227C36.1522 33.5227 36.1527 33.5229 36.1536 33.5234L36.1521 33.5227ZM0.847917 33.5227C0.847917 33.5228 0.847407 33.523 0.846383 33.5234L0.847917 33.5227ZM7.22359 1.72667C7.22359 2.43256 6.67295 2.97897 6.02506 2.97897C5.37717 2.97897 4.82654 2.43256 4.82654 1.72667C4.82654 1.02078 5.37717 0.474359 6.02506 0.474359C6.67295 0.474359 7.22359 1.02078 7.22359 1.72667ZM6.07647 7.4C6.07647 8.10589 5.52583 8.65231 4.87794 8.65231C4.23005 8.65231 3.67942 8.10589 3.67942 7.4C3.67942 6.69411 4.23005 6.14769 4.87794 6.14769C5.52583 6.14769 6.07647 6.69411 6.07647 7.4ZM31.0227 2.97897C30.3749 2.97897 29.8242 2.43256 29.8242 1.72667C29.8242 1.02078 30.3749 0.474359 31.0227 0.474359C31.6706 0.474359 32.2213 1.02078 32.2213 1.72667C32.2213 2.43256 31.6706 2.97897 31.0227 2.97897ZM32.1699 8.65231C31.522 8.65231 30.9713 8.10589 30.9713 7.4C30.9713 6.69411 31.522 6.14769 32.1699 6.14769C32.8178 6.14769 33.3684 6.69411 33.3684 7.4C33.3684 8.10589 32.8178 8.65231 32.1699 8.65231Z" stroke-width="0.948718"/>
<path d="M27.5814 11.3467H9.89661M7.19311 1.72667H9.41865L12.3333 4.86843M29.7173 1.72667H27.5814L24.6667 4.86843M30.9272 7.4H25.0669M6.07288 7.4H11.9776" stroke-width="0.948718"/>
</svg>
