<svg width="109" height="17" viewBox="0 0 109 17" fill="none" xmlns="http://www.w3.org/2000/svg">
<path d="M8.52479 3.06024C8.67509 2.60089 9.32491 2.60089 9.47521 3.06024L10.424 5.95988C10.6257 6.57642 11.2009 6.99342 11.8496 6.99342H14.9049C15.3901 6.99342 15.5909 7.61501 15.1974 7.8989L12.7377 9.67359C12.2083 10.0556 11.9867 10.736 12.1897 11.3565L13.1321 14.2366C13.2826 14.6967 12.7568 15.0808 12.3643 14.7976L9.87765 13.0035C9.35363 12.6254 8.64637 12.6254 8.12235 13.0035L5.63569 14.7976C5.24315 15.0808 4.71741 14.6967 4.86793 14.2366L5.8103 11.3565C6.01331 10.736 5.79173 10.0556 5.26233 9.67359L2.80257 7.8989C2.40909 7.61501 2.60992 6.99342 3.09512 6.99342H6.15041C6.79912 6.99342 7.37431 6.57642 7.57604 5.95988L8.52479 3.06024Z" fill="#FFD600" stroke="#FFD600"/>
<path d="M31.5248 3.06024C31.6751 2.60089 32.3249 2.60089 32.4752 3.06024L33.424 5.95988C33.6257 6.57642 34.2009 6.99342 34.8496 6.99342H37.9049C38.3901 6.99342 38.5909 7.61501 38.1974 7.8989L35.7377 9.67359C35.2083 10.0556 34.9867 10.736 35.1897 11.3565L36.1321 14.2366C36.2826 14.6967 35.7568 15.0808 35.3643 14.7976L32.8777 13.0035C32.3536 12.6254 31.6464 12.6254 31.1223 13.0035L28.6357 14.7976C28.2432 15.0808 27.7174 14.6967 27.8679 14.2366L28.8103 11.3565C29.0133 10.736 28.7917 10.0556 28.2623 9.67359L25.8026 7.8989C25.4091 7.61501 25.6099 6.99342 26.0951 6.99342H29.1504C29.7991 6.99342 30.3743 6.57642 30.576 5.95988L31.5248 3.06024Z" fill="#FFD600" stroke="#FFD600"/>
<path d="M54.0223 3.23943C54.1675 2.76959 54.8325 2.76959 54.9777 3.23943L55.8111 5.93628C56.0053 6.5648 56.5864 6.99342 57.2442 6.99342H60.0437C60.522 6.99342 60.7273 7.60041 60.3472 7.89075L57.9975 9.6858C57.4979 10.0674 57.2893 10.72 57.4749 11.3206L58.3519 14.1584C58.4956 14.6236 57.9575 14.9989 57.5706 14.7034L55.4106 13.0533C54.873 12.6426 54.127 12.6426 53.5894 13.0533L51.4294 14.7034C51.0425 14.9989 50.5044 14.6235 50.6481 14.1584L51.5251 11.3206C51.7107 10.72 51.5021 10.0674 51.0025 9.6858L48.6528 7.89075C48.2727 7.60041 48.478 6.99342 48.9563 6.99342H51.7558C52.4136 6.99342 52.9947 6.5648 53.1889 5.93629L54.0223 3.23943Z" fill="#FFD600" stroke="#FFD600"/>
<path d="M76.5248 3.06024C76.6751 2.60089 77.3249 2.60089 77.4752 3.06024L78.424 5.95988C78.6257 6.57642 79.2009 6.99342 79.8496 6.99342H82.9049C83.3901 6.99342 83.5909 7.61501 83.1974 7.8989L80.7377 9.67359C80.2083 10.0556 79.9867 10.736 80.1897 11.3565L81.1321 14.2366C81.2826 14.6967 80.7568 15.0808 80.3643 14.7976L77.8777 13.0035C77.3536 12.6254 76.6464 12.6254 76.1223 13.0035L73.6357 14.7976C73.2432 15.0808 72.7174 14.6967 72.8679 14.2366L73.8103 11.3565C74.0133 10.736 73.7917 10.0556 73.2623 9.67359L70.8026 7.8989C70.4091 7.61501 70.6099 6.99342 71.0951 6.99342H74.1504C74.7991 6.99342 75.3743 6.57642 75.576 5.95988L76.5248 3.06024Z" fill="#FFD600" stroke="#FFD600"/>
<path d="M99.5248 3.06024C99.6751 2.60089 100.325 2.60089 100.475 3.06024L101.424 5.95988C101.626 6.57642 102.201 6.99342 102.85 6.99342H105.905C106.39 6.99342 106.591 7.61501 106.197 7.8989L103.738 9.67359C103.208 10.0556 102.987 10.736 103.19 11.3565L104.132 14.2366C104.283 14.6967 103.757 15.0808 103.364 14.7976L100.878 13.0035C100.354 12.6254 99.6464 12.6254 99.1223 13.0035L96.6357 14.7976C96.2432 15.0808 95.7174 14.6967 95.8679 14.2366L96.8103 11.3565C97.0133 10.736 96.7917 10.0556 96.2623 9.67359L93.8026 7.8989C93.4091 7.61501 93.6099 6.99342 94.0951 6.99342H97.1504C97.7991 6.99342 98.3743 6.57642 98.576 5.95988L99.5248 3.06024Z" stroke="#FFD600"/>
</svg>
