<svg width="80" height="48" viewBox="0 0 80 48" fill="none" xmlns="http://www.w3.org/2000/svg">
<path d="M20.2719 23.9941C9.22206 23.9941 2.52311 29.5479 0 40.0046C5.91626 32.1946 13.3986 31.9172 18.9233 36.8372C25.0136 42.2608 27.9282 47.6478 39.7172 47.9881C53.2463 48.3786 58.5101 39.0501 59.9891 32.0644C58.1185 34.8847 53.6378 39.1259 47.5476 38.3124C37.8032 37.0108 36.5416 23.9941 20.2719 23.9941Z" fill="#06B6D4"/>
<path d="M40.2828 0C29.2329 6.8558e-06 22.534 5.55378 20.0109 16.0105C25.9271 8.20052 33.4095 7.92314 38.9342 12.8431C45.0245 18.2667 47.9391 23.6538 59.7281 23.9941C73.2572 24.3846 78.5209 15.056 80 8.07033C78.1294 10.8906 73.6487 15.1319 67.5585 14.3183C57.814 13.0167 56.5525 -1.00944e-05 40.2828 0Z" fill="#06B6D4"/>
</svg>
