<svg width="20" height="18" viewBox="0 0 20 18" fill="none" xmlns="http://www.w3.org/2000/svg">
<path d="M7.70443 12.3574L7.43772 17.1426L10.3941 14.4028C10.4948 14.3094 10.6487 14.3039 10.7559 14.3897L14.8345 17.6562C15.5958 18.2659 16.7323 17.8464 16.9148 16.8883L19.8825 1.31341C19.9542 0.936928 19.8019 0.552909 19.4916 0.327968C19.2108 0.124454 18.844 0.0829046 18.5248 0.218475L0.393432 7.92045C0.154891 8.02178 0 8.25586 0 8.51503C0 8.79161 0.176071 9.03751 0.437907 9.1266L4.79474 10.6091C5.06963 10.7026 5.37251 10.6616 5.61257 10.4982L15.9316 3.47603C15.9622 3.45515 15.9985 3.44399 16.0356 3.44399H16.0588C16.2245 3.44399 16.3065 3.64525 16.188 3.76109L7.9536 11.8087C7.8049 11.954 7.716 12.1498 7.70443 12.3574Z" fill="#001431" fill-opacity="0.65"/>
</svg>
