<svg width="80" height="80" viewBox="0 0 80 80" fill="none" xmlns="http://www.w3.org/2000/svg">
<path d="M0 80V0H80V80H0Z" fill="#3178C6"/>
<path d="M49.45 63.4502V71.5502C57.85 75.2502 72.1169 74.2502 73.35 65.0686C74.4 57.2502 69.9 54.4502 62.3 51.4002C57.9557 49.6567 56.6 47.1002 58.55 45.0002C60.5 42.9002 66.7 42.4502 71.95 45.9002V38.3501C57.6266 34.1502 49.2998 39.9502 49.2998 47.3107C49.2998 52.9107 52.3543 55.7688 58.45 58.1502C65.35 60.8458 65.45 62.9002 64.9 64.7002C63.921 67.9044 55 68.6502 49.45 63.4502Z" fill="black"/>
<path d="M28.4 73.0002V44.4502H18.4V37.9502H46.4V44.4502H36.4V73.0002H28.4Z" fill="black"/>
</svg>
