<svg width="82" height="81" viewBox="0 0 82 81" fill="none" xmlns="http://www.w3.org/2000/svg">
<path d="M41 74.8408L31.1724 74.7987M41 74.8408V51.604M41 74.8408L50.8276 74.7987M6.27586 74.6834L1 74.6693V80.5H41H81V74.6693L75.7241 74.6834M6.27586 74.6834V19.992M6.27586 74.6834L13.931 74.7248M6.27586 19.992H17.1207M6.27586 19.992H6.08621C4.42935 19.992 3.08621 18.6488 3.08621 16.992V14.0756H17.1207M17.1207 14.0756V66.6093M17.1207 14.0756V5.98768M17.1207 66.6093L13.931 74.7248M17.1207 66.6093H24.7931M13.931 74.7248L27.8966 74.7847M24.7931 66.6093L27.8966 74.7847M24.7931 66.6093V47.2856C24.7931 43.4197 27.9271 40.2856 31.7931 40.2856H41H50.2069C54.0729 40.2856 57.2069 43.4197 57.2069 47.2856V66.6093M27.8966 74.7847L31.1724 74.7987M41 51.604H31.1724V74.7987M41 51.604H50.8276V74.7987M17.1207 5.98768H16.5887C15.0733 5.98768 13.8448 4.75922 13.8448 3.24384V3.24384C13.8448 1.72846 15.0733 0.5 16.5887 0.5H41H65.4113C66.9267 0.5 68.1552 1.72846 68.1552 3.24384V3.24384C68.1552 4.75922 66.9267 5.98767 65.4113 5.98767H64.8793M17.1207 5.98768H41L64.8793 5.98767M75.7241 74.6834V19.992M75.7241 74.6834L68.069 74.7248M75.7241 19.992H64.8793M75.7241 19.992H75.9138C77.5706 19.992 78.9138 18.6488 78.9138 16.992V14.0756H64.8793M64.8793 19.992V14.0756M64.8793 19.992V66.6093M64.8793 14.0756V5.98767M64.8793 66.6093L68.069 74.7248M64.8793 66.6093H57.2069M68.069 74.7248L54.1035 74.7847M57.2069 66.6093L54.1035 74.7847M54.1035 74.7847L50.8276 74.7987M41 34.0263H36.6897V25.709H41H45.3103V34.0263H41ZM41 20.3071H36.6897V11.9898H41L45.3103 11.9898V20.3071H41ZM27.2069 20.3071H22.8966V11.9898H27.2069H31.5172V20.3071H27.2069ZM27.2069 34.0263H22.8966V25.709H27.2069H31.5172V34.0263H27.2069ZM54.7931 20.3071H59.1035V11.9898H54.7931H50.4828V20.3071H54.7931ZM54.7931 34.0263H59.1035V25.709H54.7931H50.4828V34.0263H54.7931Z" stroke="#001431"/>
</svg>
