<svg width="80" height="88" viewBox="0 0 80 88" fill="none" xmlns="http://www.w3.org/2000/svg">
<path d="M41.5124 45.3977V68.7436L63.6767 56.6824V32.7154L41.5124 45.3977Z" fill="#1C78C0"/>
<path d="M38.4355 45.3977V68.7436L16.2712 56.6824V32.7154L38.4355 45.3977Z" fill="#1C78C0"/>
<path d="M62.1643 30.0236L40.0001 42.7059L17.7315 30.0236L40.0001 17.8589L62.1643 30.0236Z" fill="#1C78C0"/>
<path d="M0 65.6376V23.3459L13.1421 30.9553V58.08L0 65.6376Z" fill="#8ED5FA"/>
<path d="M14.6023 28.2118L1.46023 20.7059L38.3833 0V15.1671L14.6023 28.2118Z" fill="#8ED5FA"/>
<path d="M41.5124 15.1671V0L78.4355 20.7059L65.3977 28.2118L41.5124 15.1671Z" fill="#8ED5FA"/>
<path d="M66.8057 58.1318V30.9553L80 23.3459V65.6376L66.8057 58.1318Z" fill="#8ED5FA"/>
<path d="M2.50326 67.8118L16.0104 59.9953L38.3833 72.2635V88L2.50326 67.8118Z" fill="#8ED5FA"/>
<path d="M41.5124 88V72.2635L63.9374 59.9953L77.601 67.8118L41.5124 88Z" fill="#8ED5FA"/>
</svg>
